<svg width="100" height="100" viewBox="0 0 100 100" fill="none" xmlns="http://www.w3.org/2000/svg">
<circle cx="50" cy="50" r="50" fill="#C2C2C2"/>
<path d="M50.0625 89.125C71.6361 89.125 89.125 71.6361 89.125 50.0625C89.125 28.4889 71.6361 11 50.0625 11C28.4889 11 11 28.4889 11 50.0625C11 71.6361 28.4889 89.125 50.0625 89.125Z" fill="white"/>
<g clip-path="url(#clip0)">
<path d="M69.3951 62.5955L52.9475 34.285C52.1913 33.0089 51.1043 32.2527 49.97 32.2527C48.7884 32.2527 47.7013 33.0089 46.9924 34.285L30.6394 62.5955C29.8832 63.8717 29.7886 65.195 30.4031 66.1875C30.9702 67.1801 32.1518 67.7472 33.6642 67.7472H66.3702C67.8354 67.7472 69.017 67.1801 69.6314 66.1875C70.1985 65.195 70.104 63.8717 69.3951 62.5955ZM67.8354 65.195C67.5991 65.5731 67.0792 65.7622 66.323 65.7622H33.6169C32.8607 65.7622 32.2936 65.5259 32.1045 65.195C31.8682 64.8169 31.9627 64.2498 32.3408 63.5881L48.6938 35.2775C49.072 34.6158 49.5446 34.2377 49.97 34.2377C50.3953 34.2377 50.8679 34.6158 51.2461 35.2775L67.5991 63.5881C67.9772 64.2498 68.0717 64.8169 67.8354 65.195Z" fill="#FF0019"/>
<path d="M67.8354 65.195C67.5991 65.5731 67.0792 65.7622 66.323 65.7622H33.6169C32.8607 65.7622 32.2936 65.5259 32.1045 65.195C31.8682 64.8169 31.9627 64.2498 32.3408 63.5881L48.6938 35.2775C49.072 34.6158 49.5446 34.2377 49.97 34.2377C50.3953 34.2377 50.8679 34.6158 51.2461 35.2775L67.5991 63.5881C67.9772 64.2498 68.0717 64.8169 67.8354 65.195Z" fill="#FF0019"/>
<path d="M49.9701 41.5637C49.4029 41.5637 48.9775 41.9891 48.9775 42.5562V55.6954C48.9775 56.2625 49.4029 56.6879 49.9701 56.6879C50.5372 56.6879 50.9626 56.2625 50.9626 55.6954V42.5562C50.9626 41.9891 50.5372 41.5637 49.9701 41.5637Z" fill="white"/>
<path d="M49.9702 62.4066C50.9359 62.4066 51.7189 61.6237 51.7189 60.6579C51.7189 59.6921 50.9359 58.9092 49.9702 58.9092C49.0044 58.9092 48.2214 59.6921 48.2214 60.6579C48.2214 61.6237 49.0044 62.4066 49.9702 62.4066Z" fill="white"/>
<path d="M69.4251 62.3429L52.9776 34.0323C52.2214 32.7562 51.1343 32 50 32C50.5174 32.8499 51.497 34.6447 51.2761 35.0248L67.6291 63.3354C69 64.5 69.5 65 69.6614 65.9349C70.2286 64.9423 70.134 63.619 69.4251 62.3429Z" fill="#640AB0"/>
</g>
<defs>
<clipPath id="clip0">
<rect x="30" y="30" width="40" height="40" fill="white"/>
</clipPath>
</defs>
</svg>
