<svg width="32" height="32" viewBox="0 0 32 32" fill="none" xmlns="http://www.w3.org/2000/svg">
<g clip-path="url(#clip0)">
<path d="M16 0C7.17724 0 0 7.17725 0 16C0 24.8228 7.17724 32 16 32C24.8227 32 32 24.8228 32 16C32 7.17725 24.8227 0 16 0ZM24.1094 12.6094L15.4426 21.2759C15.1826 21.5359 14.8413 21.6667 14.5 21.6667C14.1587 21.6667 13.8174 21.5359 13.5574 21.2759L9.22411 16.9426C8.70263 16.4214 8.70263 15.5786 9.22411 15.0574C9.74535 14.5359 10.5879 14.5359 11.1094 15.0574L14.5 18.448L22.2241 10.7241C22.7453 10.2026 23.5879 10.2026 24.1094 10.7241C24.6306 11.2454 24.6306 12.0879 24.1094 12.6094Z" fill="#3CDC69"/>
</g>
<defs>
<clipPath id="clip0">
<rect width="32" height="32" fill="white"/>
</clipPath>
</defs>
</svg>
