<svg width="24" height="24" viewBox="0 0 24 24" fill="none" xmlns="http://www.w3.org/2000/svg">
<path d="M14.8115 3.80119C14.6069 3.74584 14.3942 3.85476 14.3346 4.04405C14.275 4.23334 14.3919 4.43155 14.5962 4.48691C18.5023 5.54763 21.2308 8.93086 21.2308 12.7148C21.2308 17.4409 17.0896 21.2863 12 21.2863C6.91038 21.2863 2.76923 17.4409 2.76923 12.7148C2.76923 8.92622 5.50192 5.54156 9.415 4.4837C9.61885 4.4287 9.73615 4.23048 9.67692 4.04119C9.61808 3.85191 9.40462 3.74155 9.20039 3.79798C4.96077 4.9437 2 8.6105 2 12.7148C2 17.8352 6.48577 22.0006 12 22.0006C17.5142 22.0006 22 17.8352 22 12.7148C22 8.6155 19.0438 4.95048 14.8115 3.80119Z" fill="black"/>
<path d="M12.0003 11.6429C12.213 11.6429 12.385 11.4833 12.385 11.2858V2.35714C12.385 2.15964 12.213 2 12.0003 2C11.7876 2 11.6157 2.15964 11.6157 2.35714V11.2858C11.6157 11.4833 11.7876 11.6429 12.0003 11.6429Z" fill="black"/>
</svg>
