<svg width="64" height="64" viewBox="0 0 64 64" fill="none" xmlns="http://www.w3.org/2000/svg">
<path d="M32 64C49.6731 64 64 49.6731 64 32C64 14.3269 49.6731 0 32 0C14.3269 0 0 14.3269 0 32C0 49.6731 14.3269 64 32 64Z" fill="white"/>
<path fill-rule="evenodd" clip-rule="evenodd" d="M37.6566 32.597C39.3383 31.0609 40.4 28.8573 40.4 26.4C40.4 21.7609 36.639 18 32 18C27.361 18 23.6 21.7609 23.6 26.4C23.6 28.8573 24.6617 31.0609 26.3434 32.597C21.43 33.6839 18 36.1412 18 39C18 42.8663 24.2681 46 32 46C39.7319 46 46 42.8663 46 39C46 36.1412 42.57 33.6839 37.6566 32.597ZM32 19.1171C27.9781 19.1171 24.7178 22.378 24.7178 26.4C24.7178 30.4219 27.9781 33.6822 32 33.6822C36.0219 33.6822 39.2823 30.4219 39.2823 26.4C39.2823 22.3774 36.0219 19.1171 32 19.1171ZM19.12 39C19.12 42.2474 24.8863 44.88 32 44.88C39.1137 44.88 44.88 42.2474 44.88 39C44.88 36.4744 41.3912 34.3212 36.494 33.4885C35.1931 34.315 33.6548 34.8 32 34.8C30.3452 34.8 28.8069 34.315 27.506 33.4885C22.6088 34.3212 19.12 36.4744 19.12 39Z" fill="black" fill-opacity="0.7"/>
</svg>
