<svg width="64" height="64" viewBox="0 0 64 64" fill="none" xmlns="http://www.w3.org/2000/svg">
<path d="M32 64C49.6731 64 64 49.6731 64 32C64 14.3269 49.6731 0 32 0C14.3269 0 0 14.3269 0 32C0 49.6731 14.3269 64 32 64Z" fill="white"/>
<g clip-path="url(#clip0)">
<path fill-rule="evenodd" clip-rule="evenodd" d="M27.8013 22.857C27.8013 26.638 30.8774 29.7143 34.6584 29.7143C38.4394 29.7143 41.5156 26.638 41.5156 22.857C41.5156 19.0761 38.4394 16 34.6584 16C30.8774 16 27.8013 19.0761 27.8013 22.857ZM34.6584 28.4674C37.7521 28.4674 40.2689 25.9506 40.2689 22.857C40.2689 19.7637 37.7521 17.2468 34.6584 17.2468C31.5648 17.2468 29.0479 19.7637 29.0479 22.857C29.0479 25.9506 31.5648 28.4674 34.6584 28.4674Z" fill="black" fill-opacity="0.7"/>
<path fill-rule="evenodd" clip-rule="evenodd" d="M23.2423 47.815C23.485 48.0592 23.88 48.0618 24.1259 47.8201L27.1611 44.8358C27.6767 44.3211 27.8335 43.5592 27.6068 42.8968L28.2597 42.2684C28.6112 41.9295 29.074 41.7427 29.5632 41.7427H37.8859C39.3624 41.7427 40.7579 41.1768 41.8159 40.1492C41.8595 40.107 41.4854 40.5467 47.4938 33.3797C48.3849 32.3275 48.2516 30.7474 47.1963 29.857C46.1476 28.9749 44.5767 29.1016 43.6831 30.1358L39.9889 33.9254C39.5224 33.3524 38.811 32.9952 38.0424 32.9952H31.0613C30.0679 32.5804 29.0138 32.3704 27.9262 32.3704C24.9116 32.3704 22.2792 33.7601 20.8666 36.3655C20.2714 36.253 19.6437 36.4327 19.1921 36.8834L16.2139 39.8646C15.9708 40.108 15.9703 40.5018 16.2129 40.7459L23.2423 47.815ZM30.6821 34.1924C29.812 33.8126 28.8849 33.6199 27.926 33.6199C25.2506 33.6199 23.0997 34.8406 21.9534 36.9869L26.858 41.8817L27.39 41.3692C27.9757 40.8045 28.7477 40.4932 29.5632 40.4932H37.8859C39.0238 40.4932 40.1004 40.0609 40.9204 39.2752L46.5356 32.5755C46.983 32.0469 46.9162 31.2569 46.3888 30.8118C45.8619 30.3685 45.0698 30.4351 44.6237 30.9608C44.6021 30.9864 44.0982 31.5015 40.5246 35.1678C40.5388 35.2757 40.5466 35.3846 40.5466 35.4945C40.5466 36.8726 39.4233 37.9937 38.0424 37.9937H32.9346C32.5889 37.9937 32.3086 37.7142 32.3086 37.369C32.3086 37.024 32.5889 36.7442 32.9346 36.7442H38.0424C38.733 36.7442 39.2946 36.1837 39.2946 35.4945C39.2946 34.7974 38.7213 34.2449 38.0424 34.2449H30.9331C30.8467 34.2449 30.7614 34.2271 30.6821 34.1924ZM20.8534 37.6785C20.6016 37.5233 20.2846 37.5604 20.0782 37.7664L17.5402 40.3067L23.6917 46.493L26.2792 43.9488C26.5126 43.7159 26.5261 43.3179 26.2758 43.0682C20.6506 37.4617 20.9617 37.7445 20.8534 37.6785Z" fill="black" fill-opacity="0.7"/>
</g>
<defs>
<clipPath id="clip0">
<rect width="32" height="32" fill="white" transform="translate(16 16)"/>
</clipPath>
</defs>
</svg>
